<svg xmlns="http://www.w3.org/2000/svg" width="54" height="46" viewBox="0 0 54 46" fill="none">
  <path d="M12.8793 20.7155H45.4257C45.8573 20.7155 46.2712 20.8947 46.5764 21.2137C46.8816 21.5328 47.0531 21.9655 47.0531 22.4167C47.0531 22.8679 46.8816 23.3006 46.5764 23.6196C46.2712 23.9387 45.8573 24.1179 45.4257 24.1179H12.8793C12.4477 24.1179 12.0338 23.9387 11.7286 23.6196C11.4234 23.3006 11.252 22.8679 11.252 22.4167C11.252 21.9655 11.4234 21.5328 11.7286 21.2137C12.0338 20.8947 12.4477 20.7155 12.8793 20.7155Z" fill="white"/>
  <path d="M15.2296 22.9837L26.6797 34.7391C26.991 35.0053 27.1658 35.3663 27.1658 35.7428C27.1658 36.1193 26.991 36.4803 26.6797 36.7465C26.3685 37.0127 25.9464 37.1623 25.5063 37.1623C25.0661 37.1623 24.644 37.0127 24.3328 36.7465L9.41565 23.9874C9.2613 23.8557 9.13884 23.6993 9.05528 23.527C8.97172 23.3548 8.92871 23.1701 8.92871 22.9837C8.92871 22.7972 8.97172 22.6126 9.05528 22.4403C9.13884 22.2681 9.2613 22.1116 9.41565 21.98L24.3328 9.22081C24.644 8.9546 25.0661 8.80505 25.5063 8.80505C25.9464 8.80505 26.3685 8.9546 26.6797 9.22081C26.991 9.48701 27.1658 9.84806 27.1658 10.2245C27.1658 10.601 26.991 10.962 26.6797 11.2282L15.2296 22.9837Z" fill="white"/>
</svg>